                            <svg width="84" height="87" viewBox="0 0 84 87" fill="none" xmlns="http://www.w3.org/2000/svg">
                                <path
                                    d="M56.0252 31.0596L53.8467 34.8927L53.7582 35.0594H40.1672C38.7186 35.0594 37.3584 35.4482 36.1972 36.1259C34.9918 36.8259 33.9855 37.837 33.2888 39.048C32.6032 40.2257 32.2162 41.5923 32.2162 43.0478C32.2162 44.5032 32.6032 45.8698 33.2777 47.0364C33.3331 47.1364 33.3883 47.2253 33.4547 47.3253L33.6206 47.0364L35.8876 43.0478L36.1861 42.5144L36.2304 42.4367V42.4256L37.1593 40.8035C37.7786 39.7257 38.9176 39.048 40.1562 39.048H51.4691L49.202 43.0478H41.2178L40.1672 44.8921L39.0392 46.8697L38.9508 47.0364L37.0376 50.3918L36.6727 51.0361L36.1861 51.8806L35.0581 53.8805C34.0187 53.3804 33.0676 52.7472 32.2162 51.9805C31.8954 51.7028 31.5969 51.4028 31.3204 51.0806L31.3425 51.0361H31.2872C30.2587 49.8807 29.4515 48.5252 28.9317 47.0364C28.4894 45.792 28.2461 44.4477 28.2461 43.0478C28.2461 41.6478 28.4894 40.3035 28.9317 39.048C29.4515 37.5592 30.2587 36.2038 31.2872 35.0483C31.5748 34.7149 31.8954 34.4039 32.2272 34.1039C33.3662 33.0817 34.7154 32.2707 36.1972 31.7484C37.4357 31.304 38.7738 31.0596 40.1672 31.0596H50.6839C50.6839 31.0596 50.6949 31.0596 50.6949 31.0707V31.0596H56.0252Z"
                                    fill="#D9D9D9" />
                                <path
                                    d="M44.9145 51.1143L44.3779 52.062L42.7107 55.0208C41.9228 55.1826 41.1121 55.2635 40.2671 55.2635C39.2393 55.2635 38.2345 55.1364 37.2754 54.8936L39.4106 51.1143H44.9145Z"
                                    fill="#D9D9D9" />
                                <path fillRule="evenodd" clipRule="evenodd"
                                    d="M52.8241 11.7462L56.1566 4.32868L60.5505 6.3027L60.0668 7.37931L56.7496 5.88886L55.8099 7.98025L58.5091 9.19286L58.0231 10.2747L55.324 9.06195L53.9007 12.2298L52.8241 11.7462ZM46.0706 9.87155C46.5617 10.3314 47.2059 10.6416 48.003 10.8021C48.7965 10.9619 49.5087 10.9247 50.1395 10.6907C50.7748 10.4539 51.3029 10.0533 51.7237 9.48896C52.1445 8.92472 52.4378 8.23108 52.6035 7.40811C52.7692 6.58505 52.7672 5.83192 52.5976 5.14882C52.4279 4.46562 52.0956 3.89376 51.6008 3.43315C51.1104 2.96962 50.4684 2.6579 49.675 2.49818C48.8779 2.33762 48.1634 2.37621 47.5319 2.61385C46.901 2.84783 46.3734 3.24661 45.9488 3.81018C45.528 4.37442 45.2348 5.06806 45.069 5.89112C44.9034 6.71409 44.9053 7.46722 45.075 8.15032C45.2484 8.83428 45.5803 9.40802 46.0706 9.87155ZM49.7057 9.61263C49.2816 9.7923 48.7881 9.82148 48.2249 9.70044C47.6609 9.58308 47.2145 9.35879 46.8857 9.02759C46.5605 8.69715 46.3496 8.28604 46.2527 7.79418C46.1566 7.29865 46.1717 6.74675 46.298 6.13856C46.4243 5.53028 46.6281 5.01451 46.9091 4.59108C47.1902 4.16764 47.5428 3.86609 47.9668 3.68651C48.3946 3.50759 48.89 3.4787 49.4532 3.59983C50.0172 3.71719 50.4598 3.94072 50.7813 4.27042C51.1065 4.60086 51.3171 5.01385 51.4132 5.50938C51.51 6.00124 51.4972 6.55164 51.3745 7.16058C51.2519 7.76962 51.05 8.28576 50.769 8.70919C50.4886 9.12896 50.1341 9.43014 49.7057 9.61263ZM37.2539 10.2637L36.9192 2.13884L40.203 2.00359C40.282 2.00039 40.38 2.00011 40.4969 2.00284C40.6137 2.00181 40.7251 2.00849 40.8312 2.02298C41.2855 2.07588 41.668 2.21461 41.9787 2.43917C42.2931 2.66355 42.533 2.95324 42.6984 3.30816C42.8636 3.66308 42.9553 4.05865 42.9733 4.49498C42.9999 5.14204 42.8574 5.70741 42.5458 6.19126C42.3374 6.51202 42.0519 6.75785 41.6892 6.92849L43.3532 10.0125L42.0046 10.0681L40.4708 7.20924L38.313 7.29809L38.4331 10.2152L37.2539 10.2637ZM38.2669 6.18091L40.3263 6.09611C40.4016 6.09301 40.4842 6.08585 40.5741 6.07465C40.6679 6.06326 40.7558 6.04642 40.8378 6.02421C41.0762 5.95785 41.2656 5.84642 41.4061 5.6899C41.5465 5.52971 41.6444 5.34854 41.7003 5.14656C41.756 4.94458 41.7797 4.74392 41.7715 4.54449C41.7633 4.34515 41.7232 4.14901 41.6512 3.95606C41.579 3.75926 41.4665 3.58872 41.3136 3.44435C41.1606 3.29611 40.9625 3.19879 40.7195 3.1523C40.6358 3.1331 40.5468 3.12171 40.4524 3.11804C40.3618 3.11428 40.2789 3.1139 40.2037 3.11701L38.1442 3.20181L38.2669 6.18091ZM28.7288 4.08275L30.7921 11.9483L35.8174 10.6301L35.5351 9.55409L31.6515 10.5728L31.0139 8.14214L34.242 7.29536L33.9597 6.21922L30.7316 7.06609L30.1527 4.85931L34.0364 3.84058L33.7541 2.76454L28.7288 4.08275ZM21.4614 17.127L17.0991 10.2644L19.7964 8.54976C20.2317 8.27305 20.6537 8.12981 21.0622 8.11983C21.4708 8.10995 21.8396 8.19898 22.1687 8.38684C22.4957 8.5715 22.7582 8.8195 22.9562 9.13084C23.1964 9.50891 23.3087 9.89254 23.293 10.2818C23.2847 10.5355 23.2251 10.7702 23.114 10.9858C23.48 10.9213 23.8258 10.9508 24.1515 11.0744C24.5845 11.2363 24.9333 11.5254 25.1979 11.9416C25.4543 12.345 25.5964 12.7476 25.6243 13.1493C25.6553 13.5489 25.5702 13.9308 25.3691 14.2952C25.1691 14.6542 24.8514 14.9722 24.4161 15.2488L21.4614 17.127ZM21.8688 15.5364L23.6608 14.3974C23.8863 14.2539 24.0608 14.0828 24.1842 13.884C24.3108 13.683 24.3744 13.4709 24.3751 13.2473C24.377 13.0187 24.3072 12.7931 24.1659 12.5707C24.0346 12.3642 23.8703 12.2076 23.6732 12.101C23.4772 11.9892 23.2631 11.9401 23.031 11.9539C22.7999 11.9625 22.5701 12.0394 22.3414 12.1849L20.4875 13.3632L21.8688 15.5364ZM19.8907 12.4244L21.5635 11.361C21.7477 11.244 21.8897 11.1024 21.9894 10.9364C22.0903 10.7653 22.1391 10.5825 22.1361 10.3882C22.1341 10.1886 22.0696 9.98882 21.9423 9.78863C21.7727 9.52181 21.5444 9.35908 21.2574 9.30063C20.9705 9.24218 20.6777 9.30788 20.3789 9.49771L18.7062 10.561L19.8907 12.4244ZM11.0743 15.942L16.7857 21.7305L20.4839 18.0815L19.7025 17.2896L16.8444 20.1097L15.0795 18.3209L17.4552 15.9768L16.6738 15.1849L14.2981 17.529L12.6957 15.905L15.5538 13.085L14.7724 12.2931L11.0743 15.942ZM13.6416 26.2567L6.95445 21.6298L7.62607 20.6593L13.3983 24.6532L15.4933 21.6253L16.4081 22.2584L13.6416 26.2567ZM10.756 32.3323C11.1052 31.9796 11.384 31.551 11.5923 31.0464C11.8925 30.3191 11.9933 29.6358 11.8948 28.9963C11.7928 28.3555 11.5239 27.7883 11.0882 27.2949C10.6524 26.8014 10.0866 26.411 9.39059 26.1238C9.36273 26.1123 9.2976 26.0874 9.19529 26.0492C9.08941 26.0096 9.00377 25.9804 8.93826 25.9615L7.85666 28.5818L8.73355 28.9438L9.33685 27.4823C9.78165 27.727 10.1267 28.0058 10.3721 28.319C10.6176 28.6321 10.76 28.978 10.7992 29.3566C10.8363 29.7304 10.763 30.1298 10.5794 30.5549C10.3561 31.0859 10.0505 31.4811 9.6624 31.7404C9.27576 31.9962 8.83181 32.1245 8.33054 32.1254C7.82579 32.1247 7.28706 32.0042 6.71426 31.7637C6.14155 31.5231 5.67605 31.2251 5.31784 30.8696C4.95605 30.5125 4.72772 30.1087 4.63266 29.6581C4.53911 29.2041 4.60386 28.7115 4.82711 28.1805C5.0432 27.6669 5.35558 27.295 5.76433 27.0645C6.17308 26.8341 6.63351 26.735 7.1456 26.7672L7.40405 25.5786C6.60122 25.4713 5.88527 25.5973 5.25638 25.9567C4.6288 26.3128 4.13261 26.9326 3.76781 27.8166C3.4848 28.502 3.39322 29.1729 3.49299 29.8291C3.58927 30.4839 3.86861 31.0798 4.3312 31.6169C4.79021 32.1526 5.42513 32.5878 6.23595 32.9225C6.85186 33.1767 7.43765 33.3166 7.99313 33.3423C8.54871 33.368 9.05986 33.2939 9.52668 33.1201C9.99351 32.9462 10.4033 32.6837 10.756 32.3323ZM73.0449 54.8425C72.6837 55.1829 72.3903 55.6017 72.1646 56.0987C71.8395 56.8153 71.715 57.4947 71.7914 58.137C71.8712 58.7811 72.1203 59.3572 72.5387 59.8654C72.9571 60.3737 73.5091 60.7835 74.1948 61.0946L74.2087 61.1008L74.234 61.1117L74.2792 61.1308C74.3086 61.1433 74.3447 61.1582 74.3873 61.1758C74.4917 61.2191 74.5763 61.2513 74.6412 61.2725L75.8128 58.6911L74.9489 58.2989L74.2954 59.7387C73.8594 59.4789 73.5242 59.1882 73.2896 58.8667C73.0552 58.5453 72.9249 58.1947 72.8988 57.815C72.8747 57.4401 72.9617 57.0435 73.1599 56.625C73.4014 56.1019 73.7206 55.7177 74.1174 55.4719C74.5127 55.2297 74.9608 55.1167 75.4618 55.1333C75.9662 55.1515 76.5005 55.2906 77.0646 55.5507C77.6286 55.8109 78.0836 56.1249 78.4293 56.4926C78.7785 56.862 78.9927 57.2735 79.0721 57.7271C79.15 58.1841 79.0681 58.6741 78.8266 59.197C78.5929 59.7028 78.2678 60.0638 77.8513 60.2799C77.4348 60.4961 76.9713 60.5792 76.4606 60.5293L76.1612 61.7082C76.9598 61.8432 77.6797 61.742 78.3207 61.4046C78.9601 61.0706 79.4775 60.4682 79.8728 59.5975C80.1792 58.9222 80.2941 58.2549 80.2171 57.5956C80.1435 56.9379 79.8848 56.3327 79.4412 55.7799C79.001 55.2286 78.3815 54.7718 77.5827 54.4091C76.9759 54.1338 76.3954 53.9737 75.8412 53.9288C75.2868 53.8839 74.7734 53.9402 74.3008 54.0978C73.8283 54.2554 73.4096 54.5036 73.0449 54.8425ZM76.4864 65.6444L69.96 60.7934L67.0595 64.6956L67.9524 65.3593L70.1488 62.4042L75.7823 66.5916L76.4864 65.6444ZM66.6106 65.2532L72.1266 71.2281L68.3093 74.7522L67.5547 73.9348L70.5048 71.2113L68.9572 69.535L66.5051 71.7989L65.7504 70.9815L68.2027 68.7176L66.498 66.8712L63.5479 69.5947L62.7933 68.7773L66.6106 65.2532ZM65.8911 76.6926L61.7558 69.6909L58.7411 71.4715C58.2971 71.7338 57.9692 72.0411 57.7576 72.3934C57.5446 72.7509 57.4471 73.1299 57.465 73.5303C57.4796 73.9326 57.6085 74.3397 57.8516 74.7514C58.1024 75.176 58.4416 75.4763 58.8691 75.6523C59.1905 75.7865 59.5352 75.8273 59.9031 75.7748C59.7851 75.9867 59.7177 76.2192 59.7011 76.4726C59.6726 76.861 59.7723 77.2482 60.0001 77.6339C60.1877 77.9515 60.442 78.208 60.7628 78.4033C61.0856 78.6018 61.4512 78.7028 61.8599 78.7063C62.2686 78.7098 62.695 78.5803 63.1391 78.3181L65.8911 76.6926ZM59.4683 72.3471L61.2965 71.2673L62.606 73.4845L60.7146 74.6017C60.4812 74.7395 60.2489 74.809 60.0177 74.8099C59.7852 74.8161 59.5729 74.76 59.3806 74.6418C59.1871 74.5288 59.0281 74.3669 58.9037 74.1563C58.7696 73.9293 58.7073 73.7017 58.7166 73.4731C58.7246 73.2498 58.7951 73.0398 58.9282 72.8431C59.0581 72.6484 59.238 72.483 59.4683 72.3471ZM61.4651 75.4505L63.1717 74.4425L64.2946 76.3436L62.5879 77.3516C62.2832 77.5316 61.9885 77.5876 61.7035 77.5198C61.4186 77.452 61.1957 77.2819 61.0349 77.0096C60.9143 76.8054 60.8563 76.6036 60.8609 76.4041C60.8642 76.2098 60.919 76.0287 61.0254 75.8609C61.1305 75.6983 61.277 75.5614 61.4651 75.4505ZM52.1258 74.5637L53.8984 82.4999L48.8281 83.6324L48.5855 82.5467L52.504 81.6715L52.0067 79.4449L48.7496 80.1724L48.507 79.0867L51.7642 78.3592L51.2164 75.9067L47.2979 76.7819L47.0554 75.6962L52.1258 74.5637ZM45.7837 84.1009L45.7247 75.9694L44.5445 75.978L44.5657 78.8974L42.406 78.9131L40.97 76.004L39.6204 76.0138L41.1788 79.1524C40.8106 79.3107 40.5169 79.5467 40.2977 79.8602C39.9699 80.3332 39.8083 80.8935 39.813 81.5409C39.8162 81.9776 39.8943 82.3761 40.0476 82.7365C40.2008 83.0968 40.4307 83.3944 40.7373 83.6294C41.0403 83.8643 41.4178 84.0159 41.8701 84.0842C41.9756 84.1022 42.0868 84.1128 42.2035 84.1157C42.3203 84.1224 42.4182 84.1254 42.4972 84.1248L45.7837 84.1009ZM42.5127 80.0305L44.5738 80.0155L44.5955 82.9971L42.5343 83.0121C42.459 83.0126 42.3762 83.0094 42.2858 83.0026C42.1916 82.9957 42.1031 82.9813 42.0201 82.9593C41.7788 82.9046 41.5841 82.8006 41.4362 82.6473C41.2882 82.4978 41.1816 82.3235 41.1161 82.1244C41.0507 81.9291 41.0172 81.7317 41.0158 81.5323C41.0143 81.3327 41.0449 81.1329 41.1074 80.9329C41.17 80.7329 41.2741 80.5552 41.4198 80.3998C41.5656 80.2482 41.7587 80.1433 41.9992 80.085C42.0819 80.0656 42.1703 80.0518 42.2643 80.0436C42.3546 80.0354 42.4374 80.031 42.5127 80.0305ZM35.066 75.0569C35.8579 75.2419 36.4922 75.5717 36.9689 76.0465C37.4447 76.5249 37.7588 77.1086 37.9111 77.7976C38.0596 78.4856 38.0384 79.2384 37.8475 80.0559C37.6564 80.8734 37.342 81.5578 36.9039 82.1088C36.4622 82.6589 35.9226 83.0412 35.2848 83.2557C34.6462 83.4738 33.931 83.4904 33.1391 83.3054C32.351 83.1212 31.7189 82.7899 31.243 82.3115C30.7627 81.8359 30.4482 81.254 30.2996 80.566C30.1511 79.8779 30.1723 79.1252 30.3632 78.3076C30.5542 77.4901 30.8687 76.8059 31.3068 76.2548C31.7448 75.7037 32.2848 75.3195 32.9271 75.1023C33.5648 74.8879 34.2779 74.8728 35.066 75.0569ZM34.8104 76.1512C34.2512 76.0128 33.7569 76.0268 33.3276 76.1933C32.8937 76.3626 32.5302 76.6527 32.237 77.0636C31.943 77.4781 31.7253 77.9879 31.584 78.5928C31.4428 79.1977 31.4129 79.7474 31.4945 80.242C31.5753 80.7403 31.7731 81.1595 32.0879 81.4999C32.3992 81.8394 32.8348 82.0764 33.3948 82.2111C33.954 82.3495 34.4501 82.3358 34.8831 82.1702C35.3125 82.0038 35.6742 81.7132 35.9681 81.2987C36.2621 80.8841 36.4816 80.3748 36.6267 79.7707C36.7716 79.1667 36.8037 78.6155 36.7229 78.1173C36.6412 77.6227 36.443 77.2053 36.1282 76.865C35.8097 76.5238 35.3704 76.2859 34.8104 76.1512ZM26.5166 81.1583L30.1034 73.8603L29.0441 73.3398L27.5123 76.4566L24.8566 75.1515L24.3336 76.2157L26.9892 77.5209L25.9779 79.5786L22.7141 77.9744L22.1935 79.0337L26.5166 81.1583ZM22.6204 69.6376L18.328 75.1914L20.4682 76.8455L19.7879 77.7258L14.5737 73.6956L15.2539 72.8155L17.3942 74.4696L21.6866 68.9158L22.6204 69.6376ZM12.9099 72.0961L19.064 66.781L15.6683 62.849L14.8263 63.5762L17.4507 66.6149L15.5488 68.2574L13.3675 65.7316L12.5255 66.4587L14.7069 68.9846L12.9803 70.4758L10.356 67.4371L9.51398 68.1643L12.9099 72.0961ZM14.812 61.7331L7.72169 65.7148L5.17779 61.185L6.14786 60.6402L8.11379 64.141L10.103 63.0239L8.4688 60.114L9.43878 59.5692L11.0729 62.4792L13.2641 61.2488L11.2981 57.748L12.2681 57.2032L14.812 61.7331ZM4.07567 59.1238L11.0607 54.1923L10.5575 52.5687L2.00781 52.4515L2.37064 53.6219L9.67511 53.7466L3.71294 57.9533L4.07567 59.1238ZM7.09111 42.5083C7.08019 42.7943 7.00442 43.0514 6.86381 43.2795C6.72339 43.504 6.53769 43.6815 6.30664 43.8122C6.072 43.9388 5.81177 43.9967 5.52584 43.9858C5.23991 43.9749 4.98673 43.8974 4.76612 43.7533C4.54202 43.6054 4.36847 43.4141 4.24555 43.1797C4.12273 42.9414 4.06682 42.6794 4.07774 42.3934C4.08791 42.1263 4.16311 41.8842 4.30325 41.6674C4.44348 41.4467 4.63087 41.2748 4.86541 41.1519C5.09628 41.0251 5.35473 40.9672 5.64056 40.9781C5.92649 40.989 6.18165 41.0666 6.40593 41.2107C6.62664 41.351 6.79849 41.5365 6.9216 41.7673C7.0448 41.9943 7.10127 42.2413 7.09111 42.5083ZM64.6263 10.012L60.5243 15.7079L61.482 16.3977L65.584 10.7017L67.7789 12.2825L68.4291 11.3797L63.0814 7.52849L62.4313 8.43117L64.6263 10.012ZM64.2179 18.4342L70.1929 12.9182L73.7169 16.7354L72.8995 17.4901L70.176 14.54L68.4998 16.0875L70.7636 18.5398L69.9462 19.2943L67.6824 16.8422L65.836 18.5467L68.5595 21.4969L67.7421 22.2515L64.2179 18.4342ZM75.6785 19.2049L68.7223 23.4165L71.413 27.8607L72.3646 27.2845L70.2852 23.8499L72.4349 22.5484L74.1633 25.4034L75.1149 24.8272L73.3865 21.9722L75.3381 20.7907L77.4175 24.2253L78.3692 23.6492L75.6785 19.2049ZM72.7276 30.8234L79.5467 25.6648L79.9477 26.8227L74.1271 31.2231L81.4317 31.1075L81.8328 32.2654L73.284 32.4295L72.7276 30.8234ZM77.302 41.5768C77.1692 41.8096 77.1023 42.0691 77.1011 42.3552C77.1001 42.6225 77.1649 42.8675 77.2958 43.0902C77.4267 43.3165 77.6047 43.4961 77.8301 43.6288C78.0592 43.7653 78.3168 43.8341 78.6029 43.8352C78.8891 43.8363 79.1453 43.7696 79.3717 43.635C79.6019 43.5042 79.7834 43.3261 79.9161 43.1008C80.0487 42.8792 80.1156 42.6347 80.1166 42.3674C80.1178 42.0813 80.053 41.8214 79.9222 41.5874C79.7914 41.3572 79.6114 41.172 79.3823 41.0317C79.157 40.8954 78.9013 40.8266 78.6152 40.8253C78.3291 40.8242 78.0709 40.8909 77.8407 41.0255C77.6142 41.1639 77.4347 41.3476 77.302 41.5768Z"
                                    fill="#555555" />
                            </svg>