<svg width="16" height="16" viewBox="0 0 16 16" fill="none" xmlns="http://www.w3.org/2000/svg">
<path d="M1.67974 7.76683C5.1157 6.26984 7.40689 5.28292 8.55329 4.8061C11.8265 3.44466 12.5066 3.20816 12.9499 3.20027C13.0474 3.19864 13.2654 3.2228 13.4067 3.33739C13.5259 3.43414 13.5587 3.56484 13.5744 3.65658C13.5901 3.74831 13.6097 3.95728 13.5941 4.12057C13.4167 5.98427 12.6492 10.507 12.2588 12.5944C12.0936 13.4776 11.7682 13.7738 11.4533 13.8027C10.7688 13.8657 10.2491 13.3504 9.58615 12.9159C8.5488 12.2359 7.96276 11.8126 6.95583 11.149C5.79214 10.3821 6.54651 9.96067 7.20969 9.27187C7.38325 9.0916 10.399 6.34856 10.4573 6.09973C10.4647 6.06861 10.4714 5.9526 10.4025 5.89135C10.3336 5.83009 10.2319 5.85104 10.1585 5.8677C10.0544 5.89131 8.39725 6.98665 5.18692 9.15371C4.71653 9.47672 4.29047 9.63409 3.90873 9.62585C3.4879 9.61676 2.67838 9.3879 2.07659 9.19228C1.33847 8.95235 0.751822 8.82549 0.802906 8.41801C0.829513 8.20577 1.12179 7.98871 1.67974 7.76683Z" fill="#D9D9D9"/>
</svg>
